<svg width="24" height="24" viewBox="0 0 24 24" fill="none" xmlns="http://www.w3.org/2000/svg">
<path d="M8.10564 3H5.89436C4.29585 3 3 4.29585 3 5.89436V8.10564C3 9.70415 4.29585 11 5.89436 11H8.10564C9.70415 11 11 9.70415 11 8.10564V5.89436C11 4.29585 9.70415 3 8.10564 3Z" stroke="white" stroke-linecap="round" stroke-linejoin="round"/>
<path d="M8.10564 13H5.89436C4.29585 13 3 14.2958 3 15.8944V18.1056C3 19.7042 4.29585 21 5.89436 21H8.10564C9.70415 21 11 19.7042 11 18.1056V15.8944C11 14.2958 9.70415 13 8.10564 13Z" stroke="white" stroke-linecap="round" stroke-linejoin="round"/>
<path d="M18.1056 3H15.8944C14.2958 3 13 4.29585 13 5.89436V8.10564C13 9.70415 14.2958 11 15.8944 11H18.1056C19.7042 11 21 9.70415 21 8.10564V5.89436C21 4.29585 19.7042 3 18.1056 3Z" stroke="white" stroke-linecap="round" stroke-linejoin="round"/>
<path d="M18.1056 13H15.8944C14.2958 13 13 14.2958 13 15.8944V18.1056C13 19.7042 14.2958 21 15.8944 21H18.1056C19.7042 21 21 19.7042 21 18.1056V15.8944C21 14.2958 19.7042 13 18.1056 13Z" stroke="white" stroke-linecap="round" stroke-linejoin="round"/>
</svg>
