<svg width="19" height="33" viewBox="0 0 19 33" fill="none" xmlns="http://www.w3.org/2000/svg">
<path d="M17.2041 10.0352C17.2041 11.377 16.7646 12.4053 15.8857 13.1201C15.0068 13.835 13.7559 14.1924 12.1328 14.1924H10.7969V19H8.69629V6.15039H12.3965C14.002 6.15039 15.2031 6.47852 16 7.13477C16.8027 7.79102 17.2041 8.75781 17.2041 10.0352ZM10.7969 12.4258H11.9131C12.9912 12.4258 13.7822 12.2383 14.2861 11.8633C14.79 11.4883 15.042 10.9023 15.042 10.1055C15.042 9.36719 14.8164 8.81641 14.3652 8.45312C13.9141 8.08984 13.2109 7.9082 12.2559 7.9082H10.7969V12.4258Z" fill="white"/>
<path d="M17.2041 22.9648C17.2041 21.623 16.7646 20.5947 15.8857 19.8799C15.0068 19.165 13.7559 18.8076 12.1328 18.8076H10.7969V14H8.69629V26.8496H12.3965C14.002 26.8496 15.2031 26.5215 16 25.8652C16.8027 25.209 17.2041 24.2422 17.2041 22.9648ZM10.7969 20.5742H11.9131C12.9912 20.5742 13.7822 20.7617 14.2861 21.1367C14.79 21.5117 15.042 22.0977 15.042 22.8945C15.042 23.6328 14.8164 24.1836 14.3652 24.5469C13.9141 24.9102 13.2109 25.0918 12.2559 25.0918H10.7969V20.5742Z" fill="white"/>
<path d="M1.7959 10.0352C1.7959 11.377 2.23535 12.4053 3.11426 13.1201C3.99316 13.835 5.24414 14.1924 6.86719 14.1924H8.20312V19H10.3037V6.15039H6.60352C4.99805 6.15039 3.79688 6.47852 3 7.13477C2.19727 7.79102 1.7959 8.75781 1.7959 10.0352ZM8.20312 12.4258H7.08691C6.00879 12.4258 5.21777 12.2383 4.71387 11.8633C4.20996 11.4883 3.95801 10.9023 3.95801 10.1055C3.95801 9.36719 4.18359 8.81641 4.63477 8.45312C5.08594 8.08984 5.78906 7.9082 6.74414 7.9082H8.20312V12.4258Z" fill="white"/>
<path d="M1.7959 22.9648C1.7959 21.623 2.23535 20.5947 3.11426 19.8799C3.99316 19.165 5.24414 18.8076 6.86719 18.8076H8.20312V14H10.3037V26.8496H6.60352C4.99805 26.8496 3.79688 26.5215 3 25.8652C2.19727 25.209 1.7959 24.2422 1.7959 22.9648ZM8.20312 20.5742H7.08691C6.00879 20.5742 5.21777 20.7617 4.71387 21.1367C4.20996 21.5117 3.95801 22.0977 3.95801 22.8945C3.95801 23.6328 4.18359 24.1836 4.63477 24.5469C5.08594 24.9102 5.78906 25.0918 6.74414 25.0918H8.20312V20.5742Z" fill="white"/>
</svg>
