<svg width="22" height="16" viewBox="0 0 22 16" fill="none" xmlns="http://www.w3.org/2000/svg">
<path d="M20.3421 0H1.65787C0.742252 0 0 0.695431 0 1.55329V3.44671C0 4.30457 0.742252 5 1.65787 5H20.3421C21.2577 5 22 4.30457 22 3.44671V1.55329C22 0.695431 21.2577 0 20.3421 0Z" fill="#A1A1A1"/>
<path d="M2 6V13.2164C1.99999 13.9526 2.29924 14.6589 2.83226 15.1806C3.36527 15.7023 4.08862 15.9969 4.844 16H17.156C17.9114 15.9969 18.6347 15.7023 19.1677 15.1806C19.7008 14.6589 20 13.9526 20 13.2164V6H2ZM14.132 9.92982H7.868C7.67704 9.92982 7.49391 9.85589 7.35888 9.72429C7.22386 9.59268 7.148 9.41419 7.148 9.22807C7.148 9.04195 7.22386 8.86346 7.35888 8.73186C7.49391 8.60025 7.67704 8.52632 7.868 8.52632H14.132C14.323 8.52632 14.5061 8.60025 14.6411 8.73186C14.7761 8.86346 14.852 9.04195 14.852 9.22807C14.852 9.41419 14.7761 9.59268 14.6411 9.72429C14.5061 9.85589 14.323 9.92982 14.132 9.92982Z" fill="#A1A1A1"/>
</svg>
