<svg width="28" height="12" viewBox="0 0 28 12" fill="none" xmlns="http://www.w3.org/2000/svg">
<path d="M15.5765 0.00159144H2.36679C1.8415 -0.0134849 1.32609 0.15969 0.89891 0.494783C0.471734 0.829876 0.156168 1.30856 0.0001947 1.85804V8.6858C-0.00432074 9.11925 0.0697457 9.54938 0.218104 9.95127C0.366462 10.3532 0.586164 10.7188 0.864483 11.0271C1.1428 11.3353 1.47421 11.58 1.8395 11.747C2.2048 11.914 2.59672 12 2.99258 12H15.0076C15.8012 12 16.5624 11.6548 17.1236 11.0402C17.6847 10.4257 18 9.59225 18 8.72318V2.29412C17.9344 1.64781 17.6482 1.05249 17.1988 0.627385C16.7494 0.202278 16.17 -0.0212397 15.5765 0.00159144Z" fill="#A1A1A1"/>
<path d="M6 6L6.62591 6.50073C7.72157 7.37726 9.27843 7.37726 10.3741 6.50073L11 6" stroke="#18181D" stroke-linecap="round" stroke-linejoin="round"/>
<path d="M26.5 5.13397C27.1667 5.51887 27.1667 6.48113 26.5 6.86603L22 9.4641C21.3333 9.849 20.5 9.36788 20.5 8.59808L20.5 3.40192C20.5 2.63212 21.3333 2.151 22 2.5359L26.5 5.13397Z" fill="#A1A1A1"/>
</svg>
