<svg width="27" height="20" viewBox="0 0 27 20" fill="none" xmlns="http://www.w3.org/2000/svg">
<path d="M7.01566 2.00003C6.2232 1.99731 5.44769 2.20062 4.78749 2.58416C4.1273 2.9677 3.61218 3.51418 3.30749 4.15428C3.00279 4.79438 2.92226 5.49925 3.0761 6.17946C3.22994 6.85967 3.61122 7.48456 4.17157 7.97487C4.73193 8.46518 5.4461 8.7988 6.22348 8.93341C7.00086 9.06802 7.80642 8.99756 8.53796 8.73095C9.2695 8.46434 9.89406 8.01361 10.3324 7.43594C10.7707 6.85827 11.0031 6.1797 11 5.4863C11 4.56168 10.5802 3.67494 9.83299 3.02113C9.08579 2.36733 8.07236 2.00003 7.01566 2.00003Z" fill="#A1A1A1"/>
<path d="M7.14658 17.8268C7.93572 15.6649 9.27301 13.7967 11 12.4433C9.79255 11.5052 8.3498 11.001 6.87039 11C5.38113 11.0049 3.92941 11.5133 2.71279 12.4559C1.49617 13.3985 0.573731 14.7296 0.0710078 16.268C0.00598729 16.4586 -0.0148336 16.6638 0.0104202 16.8654C0.035674 17.067 0.106209 17.2585 0.215675 17.4227C0.328993 17.602 0.480442 17.7483 0.6569 17.8489C0.833359 17.9495 1.02951 18.0013 1.22835 18H7.05452C7.09544 17.9496 7.12674 17.8907 7.14658 17.8268Z" fill="#A1A1A1"/>
<path d="M17.5 9C19.9853 9 22 6.98528 22 4.5C22 2.01472 19.9853 0 17.5 0C15.0147 0 13 2.01472 13 4.5C13 6.98528 15.0147 9 17.5 9Z" fill="#A1A1A1"/>
<path d="M26.875 17.7733C26.1303 16.0702 24.8384 14.6092 23.1668 13.5798C21.4951 12.5504 19.5209 12 17.5 12C15.4791 12 13.5049 12.5504 11.8332 13.5798C10.1616 14.6092 8.86967 16.0702 8.12501 17.7733C8.01721 18.0196 7.97824 18.2863 8.01157 18.5496C8.0449 18.8129 8.1495 19.0647 8.31606 19.2825C8.48198 19.5047 8.70575 19.6864 8.96756 19.8115C9.22938 19.9367 9.52117 20.0014 9.81715 20H25.1829C25.4788 20.0014 25.7706 19.9367 26.0324 19.8115C26.2943 19.6864 26.518 19.5047 26.6839 19.2825C26.8505 19.0647 26.9551 18.8129 26.9884 18.5496C27.0218 18.2863 26.9828 18.0196 26.875 17.7733Z" fill="#A1A1A1"/>
</svg>
