<svg width="20" height="18" viewBox="0 0 20 18" fill="none" xmlns="http://www.w3.org/2000/svg">
<path d="M19.14 7.53998C19.2325 7.46056 19.2991 7.35523 19.3312 7.23759C19.3633 7.11994 19.3594 6.99538 19.32 6.87998C19.2852 6.76143 19.2147 6.65651 19.118 6.57955C19.0214 6.50259 18.9033 6.45734 18.78 6.44998L13.05 5.92998C13.0039 5.92449 12.9601 5.90675 12.9232 5.87862C12.8862 5.85048 12.8575 5.81297 12.84 5.76998L10.58 0.47998C10.5317 0.366096 10.4509 0.26895 10.3478 0.200657C10.2447 0.132364 10.1237 0.0959473 9.99999 0.0959473C9.87629 0.0959473 9.75532 0.132364 9.65218 0.200657C9.54904 0.26895 9.46828 0.366096 9.41999 0.47998L7.15999 5.76998C7.1471 5.80698 7.12601 5.84059 7.09831 5.8683C7.0706 5.896 7.03699 5.91709 6.99999 5.92998L1.26999 6.44998C1.14666 6.45734 1.02861 6.50259 0.931959 6.57955C0.835309 6.65651 0.764774 6.76143 0.729988 6.87998C0.690586 6.99538 0.686675 7.11994 0.71876 7.23759C0.750845 7.35523 0.817453 7.46056 0.909988 7.53998L5.23999 11.33C5.2743 11.3608 5.29979 11.4002 5.31385 11.4441C5.32791 11.4881 5.33003 11.535 5.31999 11.58L3.99999 17.19C3.96861 17.3084 3.97486 17.4336 4.01787 17.5483C4.06087 17.663 4.1385 17.7614 4.23999 17.83C4.34206 17.8983 4.46214 17.9348 4.58499 17.9348C4.70784 17.9348 4.82792 17.8983 4.92999 17.83L9.86999 14.89C9.90875 14.865 9.95388 14.8517 9.99999 14.8517C10.0461 14.8517 10.0912 14.865 10.13 14.89L15.07 17.83C15.1665 17.8885 15.2771 17.9197 15.39 17.92C15.5229 17.92 15.6524 17.878 15.76 17.8C15.8615 17.7314 15.9391 17.633 15.9821 17.5183C16.0251 17.4036 16.0314 17.2784 16 17.16L14.73 11.55C14.7199 11.505 14.7221 11.4581 14.7361 11.4141C14.7502 11.3702 14.7757 11.3308 14.81 11.3L19.14 7.53998Z" fill="#A1A1A1"/>
</svg>
